<svg width="115" height="40" viewBox="0 0 115 40" fill="none" xmlns="http://www.w3.org/2000/svg">
<path d="M3.82182 13.252C2.48982 13.252 1.31382 12.952 0.29382 12.352V9.778C1.19382 10.498 2.37582 10.858 3.83982 10.858C4.81182 10.858 5.66982 10.558 6.41382 9.958C7.15782 9.346 7.61982 8.56 7.79982 7.6H2.88582V5.422H7.67382C7.45782 4.558 7.00182 3.868 6.30582 3.352C5.60982 2.812 4.80582 2.542 3.89382 2.542C2.64582 2.542 1.52382 2.86 0.52782 3.496V0.957999C1.53582 0.417999 2.64582 0.147999 3.85782 0.147999C5.77782 0.147999 7.37982 0.783999 8.66382 2.056C9.95982 3.316 10.6078 4.864 10.6078 6.7C10.6078 8.524 9.95382 10.072 8.64582 11.344C7.33782 12.616 5.72982 13.252 3.82182 13.252ZM18.6638 6.142H15.8918L15.8558 7.402C15.7958 8.734 15.6578 9.784 15.4418 10.552C15.2138 11.356 14.8538 11.974 14.3618 12.406C13.8818 12.826 13.2158 13.048 12.3638 13.072C11.9198 13.072 11.6018 13.018 11.4098 12.91V10.84C11.5418 10.888 11.7158 10.912 11.9318 10.912C12.5198 10.912 12.9098 10.528 13.1018 9.76C13.2818 9.076 13.3778 8.044 13.3898 6.664L13.4438 4.018H21.2018V13H18.6638V6.142ZM28.5064 13H23.6824V4.018H26.2204V6.646H28.3804C29.5084 6.646 30.4084 6.934 31.0804 7.51C31.7524 8.086 32.0884 8.854 32.0884 9.814C32.0884 10.726 31.7764 11.488 31.1524 12.1C30.5164 12.7 29.6344 13 28.5064 13ZM26.2204 8.536V11.038H27.9844C28.4764 11.038 28.8604 10.93 29.1364 10.714C29.4124 10.498 29.5504 10.192 29.5504 9.796C29.5504 9.4 29.4124 9.094 29.1364 8.878C28.8604 8.65 28.4764 8.536 27.9844 8.536H26.2204ZM39.0601 4.594C40.2361 4.594 41.1901 4.96 41.9221 5.692C42.6661 6.436 43.0381 7.408 43.0381 8.608C43.0381 9.964 42.5881 11.074 41.6881 11.938C40.8121 12.802 39.6961 13.234 38.3401 13.234C36.7441 13.234 35.5261 12.706 34.6861 11.65C33.8341 10.582 33.4081 9.16 33.4081 7.384C33.4081 6.172 33.5761 5.158 33.9121 4.342C34.2481 3.514 34.7881 2.83 35.5321 2.29C36.3001 1.726 37.1761 1.282 38.1601 0.957999C39.1321 0.622 40.4101 0.327999 41.9941 0.075999V2.434L41.0401 2.596L40.1041 2.758C39.8521 2.806 39.5701 2.866 39.2581 2.938C38.7901 3.034 38.2801 3.184 37.7281 3.388C37.3441 3.532 36.9541 3.784 36.5581 4.144C36.0661 4.576 35.7841 5.236 35.7121 6.124C36.5161 5.104 37.6321 4.594 39.0601 4.594ZM38.3221 11.092C38.9701 11.092 39.4981 10.876 39.9061 10.444C40.3261 10.012 40.5361 9.46 40.5361 8.788C40.5361 8.152 40.3381 7.648 39.9421 7.276C39.5461 6.892 39.0361 6.7 38.4121 6.7C37.9201 6.7 37.4401 6.832 36.9721 7.096C36.5041 7.348 36.1441 7.672 35.8921 8.068C35.9041 9.04 36.1201 9.79 36.5401 10.318C36.9721 10.834 37.5661 11.092 38.3221 11.092ZM50.4068 3.784C51.6308 3.784 52.6388 4.24 53.4308 5.152C54.2348 6.04 54.6368 7.162 54.6368 8.518C54.6368 9.85 54.2348 10.972 53.4308 11.884C52.6388 12.784 51.6308 13.234 50.4068 13.234C49.1468 13.234 48.1628 12.79 47.4548 11.902V16.6H44.9168V4.018H47.4548V5.116C48.1268 4.228 49.1108 3.784 50.4068 3.784ZM49.6868 5.998C49.2068 5.998 48.7688 6.124 48.3728 6.376C47.9768 6.628 47.6708 6.952 47.4548 7.348V9.688C47.6708 10.084 47.9768 10.408 48.3728 10.66C48.7688 10.9 49.2068 11.02 49.6868 11.02C50.4068 11.02 50.9888 10.78 51.4328 10.3C51.8888 9.808 52.1168 9.214 52.1168 8.518C52.1168 7.81 51.8888 7.21 51.4328 6.718C50.9888 6.238 50.4068 5.998 49.6868 5.998ZM57.3544 16.708C56.6104 16.708 56.0104 16.588 55.5544 16.348V14.134C55.9744 14.374 56.4304 14.494 56.9224 14.494C57.3784 14.494 57.7564 14.35 58.0564 14.062C58.3684 13.786 58.6564 13.33 58.9204 12.694L55.0504 4.018H57.7864L60.1624 9.922L62.4124 4.018H65.0944L60.9364 13.936C60.1444 15.784 58.9504 16.708 57.3544 16.708ZM70.5758 13.234C69.2438 13.234 68.0978 12.802 67.1378 11.938C66.1778 11.05 65.6978 9.898 65.6978 8.482C65.6978 7.066 66.1778 5.932 67.1378 5.08C68.1098 4.216 69.2678 3.784 70.6118 3.784C71.5958 3.784 72.4838 3.982 73.2758 4.378V6.538C72.4958 6.178 71.7338 5.998 70.9898 5.998C70.1978 5.998 69.5318 6.232 68.9918 6.7C68.4638 7.156 68.1998 7.756 68.1998 8.5C68.1998 9.244 68.4698 9.85 69.0098 10.318C69.5498 10.786 70.2098 11.02 70.9898 11.02C71.9138 11.02 72.7238 10.816 73.4198 10.408V12.568C72.5798 13.012 71.6318 13.234 70.5758 13.234ZM79.6813 13.234C78.3493 13.234 77.2033 12.802 76.2433 11.938C75.2833 11.05 74.8033 9.898 74.8033 8.482C74.8033 7.066 75.2833 5.932 76.2433 5.08C77.2153 4.216 78.3733 3.784 79.7173 3.784C80.7013 3.784 81.5893 3.982 82.3813 4.378V6.538C81.6013 6.178 80.8393 5.998 80.0953 5.998C79.3033 5.998 78.6373 6.232 78.0973 6.7C77.5693 7.156 77.3053 7.756 77.3053 8.5C77.3053 9.244 77.5753 9.85 78.1153 10.318C78.6553 10.786 79.3153 11.02 80.0953 11.02C81.0193 11.02 81.8293 10.816 82.5253 10.408V12.568C81.6853 13.012 80.7373 13.234 79.6813 13.234ZM87.2165 13H84.6785V4.018H87.2165V7.294L90.3125 4.018H93.4265L89.5205 8.068L94.0385 13H90.7625L87.2165 9.13V13ZM103.828 11.038C104.044 11.038 104.218 11.002 104.35 10.93V12.784C104.026 13.036 103.57 13.162 102.982 13.162C101.962 13.162 101.284 12.778 100.948 12.01C100.156 12.826 99.1241 13.234 97.8521 13.234C96.8681 13.234 96.0701 12.958 95.4581 12.406C94.8461 11.854 94.5401 11.128 94.5401 10.228C94.5401 9.268 94.8881 8.536 95.5841 8.032C96.2801 7.528 97.1141 7.276 98.0861 7.276C99.1061 7.276 99.9701 7.462 100.678 7.834V7.564C100.678 6.436 99.8861 5.872 98.3021 5.872C97.3301 5.872 96.4241 6.124 95.5841 6.628V4.504C96.4961 4.024 97.6061 3.784 98.9141 3.784C100.21 3.784 101.242 4.096 102.01 4.72C102.802 5.344 103.198 6.208 103.198 7.312V10.354C103.198 10.81 103.408 11.038 103.828 11.038ZM100.678 10.354V9.454C100.15 9.106 99.5261 8.932 98.8061 8.932C98.2661 8.932 97.8341 9.034 97.5101 9.238C97.1981 9.442 97.0421 9.73 97.0421 10.102C97.0421 10.486 97.1861 10.78 97.4741 10.984C97.7621 11.176 98.1521 11.272 98.6441 11.272C99.5321 11.272 100.21 10.966 100.678 10.354ZM108.158 13H105.314L107.726 9.58C106.538 9.148 105.944 8.266 105.944 6.934C105.944 6.058 106.244 5.356 106.844 4.828C107.456 4.288 108.332 4.018 109.472 4.018H114.296V13H111.758V10.03H110.228L108.158 13ZM109.886 8.194H111.758V5.998H109.886C109.466 5.998 109.136 6.094 108.896 6.286C108.656 6.478 108.536 6.748 108.536 7.096C108.536 7.444 108.656 7.714 108.896 7.906C109.136 8.098 109.466 8.194 109.886 8.194ZM15.6958 36H13.1038V23.4H23.6518V36H21.0778V25.722H15.6958V36ZM31.7916 26.784C33.0156 26.784 34.0236 27.24 34.8156 28.152C35.6196 29.04 36.0216 30.162 36.0216 31.518C36.0216 32.85 35.6196 33.972 34.8156 34.884C34.0236 35.784 33.0156 36.234 31.7916 36.234C30.5316 36.234 29.5476 35.79 28.8396 34.902V39.6H26.3016V27.018H28.8396V28.116C29.5116 27.228 30.4956 26.784 31.7916 26.784ZM31.0716 28.998C30.5916 28.998 30.1536 29.124 29.7576 29.376C29.3616 29.628 29.0556 29.952 28.8396 30.348V32.688C29.0556 33.084 29.3616 33.408 29.7576 33.66C30.1536 33.9 30.5916 34.02 31.0716 34.02C31.7916 34.02 32.3736 33.78 32.8176 33.3C33.2736 32.808 33.5016 32.214 33.5016 31.518C33.5016 30.81 33.2736 30.21 32.8176 29.718C32.3736 29.238 31.7916 28.998 31.0716 28.998ZM39.7936 31.5C39.7936 32.22 40.0276 32.82 40.4956 33.3C40.9636 33.78 41.5576 34.02 42.2776 34.02C42.9976 34.02 43.5916 33.78 44.0596 33.3C44.5276 32.808 44.7616 32.208 44.7616 31.5C44.7616 30.78 44.5276 30.186 44.0596 29.718C43.5916 29.238 42.9976 28.998 42.2776 28.998C41.5576 28.998 40.9636 29.238 40.4956 29.718C40.0276 30.186 39.7936 30.78 39.7936 31.5ZM37.2916 31.5C37.2916 30.168 37.7596 29.052 38.6956 28.152C39.6196 27.24 40.8136 26.784 42.2776 26.784C43.7416 26.784 44.9356 27.24 45.8596 28.152C46.7956 29.064 47.2636 30.18 47.2636 31.5C47.2636 32.844 46.7956 33.972 45.8596 34.884C44.9236 35.784 43.7296 36.234 42.2776 36.234C40.8256 36.234 39.6316 35.784 38.6956 34.884C37.7596 33.972 37.2916 32.844 37.2916 31.5ZM48.0134 27.018H50.8574L52.6574 29.538L54.4754 27.018H57.2834L54.1334 31.302L57.5534 36H54.7094L52.6214 33.12L50.5154 36H47.7074L51.1454 31.32L48.0134 27.018ZM65.6853 29.142H62.9133L62.8773 30.402C62.8173 31.734 62.6793 32.784 62.4633 33.552C62.2353 34.356 61.8753 34.974 61.3833 35.406C60.9033 35.826 60.2373 36.048 59.3853 36.072C58.9413 36.072 58.6233 36.018 58.4313 35.91V33.84C58.5633 33.888 58.7373 33.912 58.9533 33.912C59.5413 33.912 59.9313 33.528 60.1233 32.76C60.3033 32.076 60.3993 31.044 60.4113 29.664L60.4653 27.018H68.2233V36H65.6853V29.142ZM79.2539 34.038C79.4699 34.038 79.6439 34.002 79.7759 33.93V35.784C79.4519 36.036 78.9959 36.162 78.4079 36.162C77.3879 36.162 76.7099 35.778 76.3739 35.01C75.5819 35.826 74.5499 36.234 73.2779 36.234C72.2939 36.234 71.4959 35.958 70.8839 35.406C70.2719 34.854 69.9659 34.128 69.9659 33.228C69.9659 32.268 70.3139 31.536 71.0099 31.032C71.7059 30.528 72.5399 30.276 73.5119 30.276C74.5319 30.276 75.3959 30.462 76.1039 30.834V30.564C76.1039 29.436 75.3119 28.872 73.7279 28.872C72.7559 28.872 71.8499 29.124 71.0099 29.628V27.504C71.9219 27.024 73.0319 26.784 74.3399 26.784C75.6359 26.784 76.6679 27.096 77.4359 27.72C78.2279 28.344 78.6239 29.208 78.6239 30.312V33.354C78.6239 33.81 78.8339 34.038 79.2539 34.038ZM76.1039 33.354V32.454C75.5759 32.106 74.9519 31.932 74.2319 31.932C73.6919 31.932 73.2599 32.034 72.9359 32.238C72.6239 32.442 72.4679 32.73 72.4679 33.102C72.4679 33.486 72.6119 33.78 72.8999 33.984C73.1879 34.176 73.5779 34.272 74.0699 34.272C74.9579 34.272 75.6359 33.966 76.1039 33.354ZM83.08 38.286H80.65V33.876H81.802C82.486 32.808 82.846 31.104 82.882 28.764L82.918 27.018H90.478V33.876H91.954V38.286H89.56V36H83.08V38.286ZM84.394 33.876H87.994V29.142H85.186C85.186 31.002 84.922 32.58 84.394 33.876ZM102.246 34.038C102.462 34.038 102.636 34.002 102.768 33.93V35.784C102.444 36.036 101.988 36.162 101.4 36.162C100.38 36.162 99.7021 35.778 99.3661 35.01C98.5741 35.826 97.5421 36.234 96.2701 36.234C95.2861 36.234 94.4881 35.958 93.8761 35.406C93.2641 34.854 92.9581 34.128 92.9581 33.228C92.9581 32.268 93.3061 31.536 94.0021 31.032C94.6981 30.528 95.5321 30.276 96.5041 30.276C97.5241 30.276 98.3881 30.462 99.0961 30.834V30.564C99.0961 29.436 98.3041 28.872 96.7201 28.872C95.7481 28.872 94.8421 29.124 94.0021 29.628V27.504C94.9141 27.024 96.0241 26.784 97.3321 26.784C98.6281 26.784 99.6601 27.096 100.428 27.72C101.22 28.344 101.616 29.208 101.616 30.312V33.354C101.616 33.81 101.826 34.038 102.246 34.038ZM99.0961 33.354V32.454C98.5681 32.106 97.9441 31.932 97.2241 31.932C96.6841 31.932 96.2521 32.034 95.9281 32.238C95.6161 32.442 95.4601 32.73 95.4601 33.102C95.4601 33.486 95.6041 33.78 95.8921 33.984C96.1801 34.176 96.5701 34.272 97.0621 34.272C97.9501 34.272 98.6281 33.966 99.0961 33.354Z" fill="#2A2A2A"/>
</svg>
