<svg width="89" height="31" viewBox="0 0 89 31" fill="none" xmlns="http://www.w3.org/2000/svg">
<path d="M2.7503 11.196C1.7143 11.196 0.799638 10.9627 0.00630474 10.496V8.494C0.706305 9.054 1.62564 9.334 2.7643 9.334C3.5203 9.334 4.18764 9.10067 4.7663 8.634C5.34497 8.158 5.7043 7.54667 5.84431 6.8H2.0223V5.106H5.74631C5.57831 4.434 5.22364 3.89733 4.68231 3.496C4.14097 3.076 3.51564 2.866 2.8063 2.866C1.83564 2.866 0.962971 3.11333 0.188305 3.608V1.634C0.972305 1.214 1.83564 1.004 2.7783 1.004C4.27164 1.004 5.51764 1.49867 6.51631 2.488C7.52431 3.468 8.0283 4.672 8.0283 6.1C8.0283 7.51867 7.51964 8.72267 6.50231 9.712C5.48497 10.7013 4.2343 11.196 2.7503 11.196ZM14.2941 5.666H12.1381L12.1101 6.646C12.0634 7.682 11.9561 8.49867 11.7881 9.096C11.6107 9.72133 11.3307 10.202 10.9481 10.538C10.5747 10.8647 10.0567 11.0373 9.39407 11.056C9.04874 11.056 8.8014 11.014 8.65207 10.93V9.32C8.75474 9.35733 8.89007 9.376 9.05807 9.376C9.5154 9.376 9.81874 9.07733 9.96807 8.48C10.1081 7.948 10.1827 7.14533 10.1921 6.072L10.2341 4.014H16.2681V11H14.2941V5.666ZM21.9494 11H18.1974V4.014H20.1714V6.058H21.8514C22.7288 6.058 23.4288 6.282 23.9514 6.73C24.4741 7.178 24.7354 7.77533 24.7354 8.522C24.7354 9.23133 24.4928 9.824 24.0074 10.3C23.5128 10.7667 22.8268 11 21.9494 11ZM20.1714 7.528V9.474H21.5434C21.9261 9.474 22.2248 9.39 22.4394 9.222C22.6541 9.054 22.7614 8.816 22.7614 8.508C22.7614 8.2 22.6541 7.962 22.4394 7.794C22.2248 7.61667 21.9261 7.528 21.5434 7.528H20.1714ZM30.1578 4.462C31.0725 4.462 31.8145 4.74667 32.3838 5.316C32.9625 5.89467 33.2518 6.65067 33.2518 7.584C33.2518 8.63867 32.9018 9.502 32.2018 10.174C31.5205 10.846 30.6525 11.182 29.5978 11.182C28.3565 11.182 27.4092 10.7713 26.7558 9.95C26.0932 9.11933 25.7618 8.01333 25.7618 6.632C25.7618 5.68933 25.8925 4.90067 26.1538 4.266C26.4152 3.622 26.8352 3.09 27.4138 2.67C28.0112 2.23133 28.6925 1.886 29.4578 1.634C30.2138 1.37267 31.2078 1.144 32.4398 0.947999V2.782L31.6978 2.908L30.9698 3.034C30.7738 3.07133 30.5545 3.118 30.3118 3.174C29.9478 3.24867 29.5512 3.36533 29.1218 3.524C28.8232 3.636 28.5198 3.832 28.2118 4.112C27.8292 4.448 27.6098 4.96133 27.5538 5.652C28.1792 4.85867 29.0472 4.462 30.1578 4.462ZM29.5838 9.516C30.0878 9.516 30.4985 9.348 30.8158 9.012C31.1425 8.676 31.3058 8.24667 31.3058 7.724C31.3058 7.22933 31.1518 6.83733 30.8438 6.548C30.5358 6.24933 30.1392 6.1 29.6538 6.1C29.2712 6.1 28.8978 6.20267 28.5338 6.408C28.1698 6.604 27.8898 6.856 27.6938 7.164C27.7032 7.92 27.8712 8.50333 28.1978 8.914C28.5338 9.31533 28.9958 9.516 29.5838 9.516ZM38.9831 3.832C39.9351 3.832 40.7191 4.18667 41.3351 4.896C41.9604 5.58667 42.2731 6.45933 42.2731 7.514C42.2731 8.55 41.9604 9.42267 41.3351 10.132C40.7191 10.832 39.9351 11.182 38.9831 11.182C38.0031 11.182 37.2377 10.8367 36.6871 10.146V13.8H34.7131V4.014H36.6871V4.868C37.2097 4.17733 37.9751 3.832 38.9831 3.832ZM38.4231 5.554C38.0497 5.554 37.7091 5.652 37.4011 5.848C37.0931 6.044 36.8551 6.296 36.6871 6.604V8.424C36.8551 8.732 37.0931 8.984 37.4011 9.18C37.7091 9.36667 38.0497 9.46 38.4231 9.46C38.9831 9.46 39.4357 9.27333 39.7811 8.9C40.1357 8.51733 40.3131 8.05533 40.3131 7.514C40.3131 6.96333 40.1357 6.49667 39.7811 6.114C39.4357 5.74067 38.9831 5.554 38.4231 5.554ZM44.3867 13.884C43.8081 13.884 43.3414 13.7907 42.9867 13.604V11.882C43.3134 12.0687 43.6681 12.162 44.0507 12.162C44.4054 12.162 44.6994 12.05 44.9327 11.826C45.1754 11.6113 45.3994 11.2567 45.6047 10.762L42.5947 4.014H44.7227L46.5707 8.606L48.3207 4.014H50.4067L47.1727 11.728C46.5567 13.1653 45.6281 13.884 44.3867 13.884ZM54.6701 11.182C53.6341 11.182 52.7427 10.846 51.9961 10.174C51.2494 9.48333 50.8761 8.58733 50.8761 7.486C50.8761 6.38467 51.2494 5.50267 51.9961 4.84C52.7521 4.168 53.6527 3.832 54.6981 3.832C55.4634 3.832 56.1541 3.986 56.7701 4.294V5.974C56.1634 5.694 55.5707 5.554 54.9921 5.554C54.3761 5.554 53.8581 5.736 53.4381 6.1C53.0274 6.45467 52.8221 6.92133 52.8221 7.5C52.8221 8.07867 53.0321 8.55 53.4521 8.914C53.8721 9.278 54.3854 9.46 54.9921 9.46C55.7107 9.46 56.3407 9.30133 56.8821 8.984V10.664C56.2287 11.0093 55.4914 11.182 54.6701 11.182ZM61.7521 11.182C60.7161 11.182 59.8248 10.846 59.0781 10.174C58.3314 9.48333 57.9581 8.58733 57.9581 7.486C57.9581 6.38467 58.3314 5.50267 59.0781 4.84C59.8341 4.168 60.7348 3.832 61.7801 3.832C62.5454 3.832 63.2361 3.986 63.8521 4.294V5.974C63.2454 5.694 62.6528 5.554 62.0741 5.554C61.4581 5.554 60.9401 5.736 60.5201 6.1C60.1094 6.45467 59.9041 6.92133 59.9041 7.5C59.9041 8.07867 60.1141 8.55 60.5341 8.914C60.9541 9.278 61.4674 9.46 62.0741 9.46C62.7928 9.46 63.4228 9.30133 63.9641 8.984V10.664C63.3108 11.0093 62.5734 11.182 61.7521 11.182ZM67.6129 11H65.6389V4.014H67.6129V6.562L70.0209 4.014H72.4429L69.4049 7.164L72.9189 11H70.3709L67.6129 7.99V11ZM80.533 9.474C80.701 9.474 80.8363 9.446 80.939 9.39V10.832C80.687 11.028 80.3323 11.126 79.875 11.126C79.0817 11.126 78.5543 10.8273 78.293 10.23C77.677 10.8647 76.8743 11.182 75.885 11.182C75.1197 11.182 74.499 10.9673 74.023 10.538C73.547 10.1087 73.309 9.544 73.309 8.844C73.309 8.09733 73.5797 7.528 74.121 7.136C74.6623 6.744 75.311 6.548 76.067 6.548C76.8603 6.548 77.5323 6.69267 78.083 6.982V6.772C78.083 5.89467 77.467 5.456 76.235 5.456C75.479 5.456 74.7743 5.652 74.121 6.044V4.392C74.8303 4.01867 75.6937 3.832 76.711 3.832C77.719 3.832 78.5217 4.07467 79.119 4.56C79.735 5.04533 80.043 5.71733 80.043 6.576V8.942C80.043 9.29667 80.2063 9.474 80.533 9.474ZM78.083 8.942V8.242C77.6723 7.97133 77.187 7.836 76.627 7.836C76.207 7.836 75.871 7.91533 75.619 8.074C75.3763 8.23267 75.255 8.45667 75.255 8.746C75.255 9.04467 75.367 9.27333 75.591 9.432C75.815 9.58133 76.1183 9.656 76.501 9.656C77.1917 9.656 77.719 9.418 78.083 8.942ZM83.9009 11H81.6889L83.5649 8.34C82.6409 8.004 82.1789 7.318 82.1789 6.282C82.1789 5.60067 82.4122 5.05467 82.8789 4.644C83.3549 4.224 84.0362 4.014 84.9229 4.014H88.6749V11H86.7009V8.69H85.5109L83.9009 11ZM85.2449 7.262H86.7009V5.554H85.2449C84.9182 5.554 84.6615 5.62867 84.4749 5.778C84.2882 5.92733 84.1949 6.13733 84.1949 6.408C84.1949 6.67867 84.2882 6.88867 84.4749 7.038C84.6615 7.18733 84.9182 7.262 85.2449 7.262ZM11.9856 28H9.9696V18.2H18.1736V28H16.1716V20.006H11.9856V28ZM24.5046 20.832C25.4566 20.832 26.2406 21.1867 26.8566 21.896C27.4819 22.5867 27.7946 23.4593 27.7946 24.514C27.7946 25.55 27.4819 26.4227 26.8566 27.132C26.2406 27.832 25.4566 28.182 24.5046 28.182C23.5246 28.182 22.7592 27.8367 22.2086 27.146V30.8H20.2346V21.014H22.2086V21.868C22.7312 21.1773 23.4966 20.832 24.5046 20.832ZM23.9446 22.554C23.5712 22.554 23.2306 22.652 22.9226 22.848C22.6146 23.044 22.3766 23.296 22.2086 23.604V25.424C22.3766 25.732 22.6146 25.984 22.9226 26.18C23.2306 26.3667 23.5712 26.46 23.9446 26.46C24.5046 26.46 24.9572 26.2733 25.3026 25.9C25.6572 25.5173 25.8346 25.0553 25.8346 24.514C25.8346 23.9633 25.6572 23.4967 25.3026 23.114C24.9572 22.7407 24.5046 22.554 23.9446 22.554ZM30.7283 24.5C30.7283 25.06 30.9103 25.5267 31.2743 25.9C31.6383 26.2733 32.1003 26.46 32.6603 26.46C33.2203 26.46 33.6823 26.2733 34.0463 25.9C34.4103 25.5173 34.5923 25.0507 34.5923 24.5C34.5923 23.94 34.4103 23.478 34.0463 23.114C33.6823 22.7407 33.2203 22.554 32.6603 22.554C32.1003 22.554 31.6383 22.7407 31.2743 23.114C30.9103 23.478 30.7283 23.94 30.7283 24.5ZM28.7823 24.5C28.7823 23.464 29.1463 22.596 29.8743 21.896C30.593 21.1867 31.5217 20.832 32.6603 20.832C33.799 20.832 34.7277 21.1867 35.4463 21.896C36.1743 22.6053 36.5383 23.4733 36.5383 24.5C36.5383 25.5453 36.1743 26.4227 35.4463 27.132C34.7183 27.832 33.7897 28.182 32.6603 28.182C31.531 28.182 30.6023 27.832 29.8743 27.132C29.1463 26.4227 28.7823 25.5453 28.7823 24.5ZM37.1215 21.014H39.3335L40.7335 22.974L42.1475 21.014H44.3315L41.8815 24.346L44.5415 28H42.3295L40.7055 25.76L39.0675 28H36.8835L39.5575 24.36L37.1215 21.014ZM50.8663 22.666H48.7103L48.6823 23.646C48.6357 24.682 48.5283 25.4987 48.3603 26.096C48.183 26.7213 47.903 27.202 47.5203 27.538C47.147 27.8647 46.629 28.0373 45.9663 28.056C45.621 28.056 45.3737 28.014 45.2243 27.93V26.32C45.327 26.3573 45.4623 26.376 45.6303 26.376C46.0877 26.376 46.391 26.0773 46.5403 25.48C46.6803 24.948 46.755 24.1453 46.7643 23.072L46.8063 21.014H52.8403V28H50.8663V22.666ZM61.4197 26.474C61.5877 26.474 61.723 26.446 61.8257 26.39V27.832C61.5737 28.028 61.219 28.126 60.7617 28.126C59.9684 28.126 59.441 27.8273 59.1797 27.23C58.5637 27.8647 57.761 28.182 56.7717 28.182C56.0064 28.182 55.3857 27.9673 54.9097 27.538C54.4337 27.1087 54.1957 26.544 54.1957 25.844C54.1957 25.0973 54.4664 24.528 55.0077 24.136C55.549 23.744 56.1977 23.548 56.9537 23.548C57.747 23.548 58.419 23.6927 58.9697 23.982V23.772C58.9697 22.8947 58.3537 22.456 57.1217 22.456C56.3657 22.456 55.661 22.652 55.0077 23.044V21.392C55.717 21.0187 56.5804 20.832 57.5977 20.832C58.6057 20.832 59.4084 21.0747 60.0057 21.56C60.6217 22.0453 60.9297 22.7173 60.9297 23.576V25.942C60.9297 26.2967 61.093 26.474 61.4197 26.474ZM58.9697 25.942V25.242C58.559 24.9713 58.0737 24.836 57.5137 24.836C57.0937 24.836 56.7577 24.9153 56.5057 25.074C56.263 25.2327 56.1417 25.4567 56.1417 25.746C56.1417 26.0447 56.2537 26.2733 56.4777 26.432C56.7017 26.5813 57.005 26.656 57.3877 26.656C58.0784 26.656 58.6057 26.418 58.9697 25.942ZM64.3956 29.778H62.5056V26.348H63.4016C63.9336 25.5173 64.2136 24.192 64.2416 22.372L64.2696 21.014H70.1496V26.348H71.2976V29.778H69.4356V28H64.3956V29.778ZM65.4176 26.348H68.2176V22.666H66.0336C66.0336 24.1127 65.8283 25.34 65.4176 26.348ZM79.3025 26.474C79.4705 26.474 79.6059 26.446 79.7085 26.39V27.832C79.4565 28.028 79.1019 28.126 78.6445 28.126C77.8512 28.126 77.3239 27.8273 77.0625 27.23C76.4465 27.8647 75.6439 28.182 74.6545 28.182C73.8892 28.182 73.2685 27.9673 72.7925 27.538C72.3165 27.1087 72.0785 26.544 72.0785 25.844C72.0785 25.0973 72.3492 24.528 72.8905 24.136C73.4319 23.744 74.0805 23.548 74.8365 23.548C75.6299 23.548 76.3019 23.6927 76.8525 23.982V23.772C76.8525 22.8947 76.2365 22.456 75.0045 22.456C74.2485 22.456 73.5439 22.652 72.8905 23.044V21.392C73.5999 21.0187 74.4632 20.832 75.4805 20.832C76.4885 20.832 77.2912 21.0747 77.8885 21.56C78.5045 22.0453 78.8125 22.7173 78.8125 23.576V25.942C78.8125 26.2967 78.9759 26.474 79.3025 26.474ZM76.8525 25.942V25.242C76.4419 24.9713 75.9565 24.836 75.3965 24.836C74.9765 24.836 74.6405 24.9153 74.3885 25.074C74.1459 25.2327 74.0245 25.4567 74.0245 25.746C74.0245 26.0447 74.1365 26.2733 74.3605 26.432C74.5845 26.5813 74.8879 26.656 75.2705 26.656C75.9612 26.656 76.4885 26.418 76.8525 25.942Z" fill="#2A2A2A"/>
</svg>
